<svg id="Capa_1" enable-background="new 0 0 512 512" height="512" viewBox="0 0 512 512" width="512" xmlns="http://www.w3.org/2000/svg"><path d="m417.251 123.929-116.296-46.14c.023-.594.045-1.189.045-1.789 0-19.555-12.541-36.228-30-42.42v-33.58h-30v33.58c-17.459 6.192-30 22.865-30 42.42 0 .6.022 1.195.045 1.789l-116.295 46.14-94.75 157.916v4.155c0 41.464 47.04 105 105 105s105-63.536 105-105v-4.155l-83.05-138.417 95.236-37.785c5.031 5.731 11.486 10.177 18.814 12.776v303.581h-54.271l-45 90h228.541l-45-90h-54.27v-303.58c7.328-2.599 13.783-7.045 18.814-12.776l95.236 37.785-83.05 138.416v4.155c0 41.464 47.04 105 105 105s105-63.536 105-105v-4.155zm-312.251 237.071c-33.924 0-63-33.92-72.07-60h144.139c-9.069 26.08-38.145 60-72.069 60zm63.507-90h-127.014l63.507-105.845zm153.222 211h-131.458l15-30h101.459zm-65.729-391c-8.271 0-15-6.729-15-15s6.729-15 15-15 15 6.729 15 15-6.729 15-15 15zm151 74.155 63.507 105.845h-127.014zm0 195.845c-33.923 0-63-33.92-72.07-60h144.14c-9.07 26.08-38.147 60-72.07 60z"/></svg>